<svg width="1152" height="700" viewBox="0 0 1152 700" fill="none" xmlns="http://www.w3.org/2000/svg">
<path d="M1151.49 698.5C1151.49 466.912 1007.68 2.4104 440.236 2.57617C293.886 2.57617 0.000229418 93.5204 0.000229418 433.426C0.000229418 521.673 51.7308 698.5 270.849 698.5C327.255 698.5 440.236 665.246 440.236 532.891C440.236 499.736 420.316 433.426 338.604 433.426C316.075 433.426 270.849 446.29 270.849 499.736C270.849 510.843 277.489 532.891 304.726 532.891C315.906 532.891 338.604 526.525 338.604 499.736" stroke="#7C7C7C" stroke-opacity="0.1" stroke-width="2"/>
<ellipse cx="388.727" cy="483" rx="50.0674" ry="49" transform="rotate(-180 388.727 483)" fill="#7C7C7C" fill-opacity="0.1"/>
<ellipse cx="321.8" cy="515.5" rx="15.8377" ry="15.5" transform="rotate(-180 321.8 515.5)" fill="#7C7C7C" fill-opacity="0.1"/>
<ellipse cx="287.059" cy="515.5" rx="15.8377" ry="15.5" transform="rotate(-180 287.059 515.5)" fill="#7C7C7C" fill-opacity="0.1"/>
<ellipse cx="133.792" cy="568.5" rx="133.343" ry="130.5" transform="rotate(-180 133.792 568.5)" fill="#7C7C7C" fill-opacity="0.1"/>
<rect x="1151" y="697" width="711.206" height="696" transform="rotate(-180 1151 697)" stroke="#7C7C7C" stroke-opacity="0.1" stroke-width="2"/>
<rect x="437.794" y="698" width="165.573" height="165" transform="rotate(-180 437.794 698)" stroke="#7C7C7C" stroke-opacity="0.1" stroke-width="2"/>
</svg>
