<svg width="32" height="24" viewBox="0 0 32 24" fill="none" xmlns="http://www.w3.org/2000/svg">
<path d="M29.2029 0.0979722C29.4943 -0.076847 29.7921 0.0202748 30.077 0.0979722C31.1842 0.402287 31.9676 1.41883 31.9871 2.57781C31.9935 2.86918 31.9806 3.16055 31.9806 3.44544C31.8964 3.44544 31.8446 3.49723 31.7799 3.54256C30.964 4.12529 30.1353 4.70802 29.3259 5.29722C28.9957 5.53679 28.6331 5.72456 28.3547 6.02887C28.2382 6.02887 28.154 6.10657 28.0698 6.16485C25.3763 8.02311 22.6828 9.8749 19.9958 11.7332C18.662 12.6526 17.3281 13.585 15.9943 14.5108C15.9555 14.5108 15.9166 14.5108 15.8843 14.5108C15.826 14.4655 15.7742 14.4072 15.7159 14.3684C12.4332 12.0828 9.15049 9.7972 5.86778 7.5116C5.1944 7.04542 4.52102 6.57276 3.84764 6.10657C3.76994 6.05477 3.69872 5.9447 3.6016 6.00298C3.51095 6.05477 3.56923 6.17779 3.55628 6.27492C3.5498 6.30729 3.55628 6.33966 3.55628 6.37204C3.55628 11.7785 3.55628 17.1849 3.55628 22.5914C3.55628 22.7079 3.56275 22.8309 3.56923 22.9475C3.56923 23.0122 3.56275 23.0705 3.56275 23.1353C2.33254 23.2842 1.2124 23.1158 0.441904 22.0022C0.163488 21.5943 0.00161872 21.141 0.00161872 20.636C0.00161872 14.595 -0.00485611 8.56052 0.00809347 2.51954C0.00809347 1.28933 1.00521 0.201568 2.22895 0.0267491C2.42319 0.000850001 2.61743 -0.0250488 2.78578 0.104447C2.82463 0.143296 2.857 0.182144 2.90232 0.214518C7.18216 3.38716 11.462 6.55981 15.7418 9.73893C15.9102 9.86195 16.0202 9.85547 16.1886 9.73245C19.6073 7.20729 23.0324 4.6886 26.4511 2.1699C27.3576 1.4771 28.277 0.784299 29.2029 0.0979722Z" fill="#E65A4D"/>
<path d="M29.203 0.0982046C28.2771 0.784532 27.3576 1.47733 26.4318 2.16366C23.0131 4.68883 19.5879 7.20104 16.1692 9.72621C16.0009 9.84923 15.8973 9.85571 15.7225 9.73269C11.4491 6.55357 7.16927 3.3874 2.88943 0.208276C2.84411 0.175902 2.81174 0.137053 2.77289 0.0982046C2.85059 -0.0312911 2.98656 0.0140322 3.09663 0.0140322C11.6887 0.0140322 20.2872 0.0140322 28.8792 0.0140322C28.9893 0.0140322 29.1188 -0.0312911 29.203 0.0982046Z" fill="#F6F4EC"/>
<path d="M3.55636 22.9345C3.54988 22.8179 3.54341 22.6949 3.54341 22.5784C3.54341 17.1719 3.54341 11.7655 3.54341 6.35903C3.54341 6.32665 3.53693 6.29428 3.54341 6.26191C3.55636 6.17126 3.49808 6.04824 3.58873 5.98996C3.68585 5.93169 3.76355 6.04176 3.83477 6.09356C4.50815 6.55974 5.18153 7.0324 5.85491 7.49859C9.13762 9.78419 12.4203 12.0698 15.7031 14.3554C15.7613 14.4007 15.8196 14.4525 15.8714 14.4978C15.8455 14.5237 15.8131 14.5432 15.7872 14.5691C15.7678 14.5885 15.7419 14.6144 15.7225 14.6338C15.6707 14.6338 15.6189 14.6468 15.593 14.6986C15.5736 14.718 15.5477 14.7439 15.5282 14.7633C15.5218 14.7762 15.5088 14.7827 15.5023 14.7957C15.5153 14.7892 15.5218 14.7762 15.5347 14.7698C15.5541 14.7503 15.58 14.7245 15.5995 14.705C15.6513 14.705 15.7031 14.6921 15.729 14.6403C15.7484 14.6209 15.7743 14.595 15.7937 14.5755C15.8584 14.5755 15.9232 14.5691 15.9879 14.5691C16.8879 15.1971 17.7944 15.8187 18.6944 16.4467C21.375 18.305 24.0555 20.1568 26.7296 22.028C27.2087 22.3647 27.7332 22.6561 28.1605 23.064C28.044 23.174 27.9016 23.1028 27.7721 23.1222C27.7785 22.9733 27.649 22.9345 27.5519 22.8697C27.0598 22.5266 26.5548 22.1964 26.0757 21.8402C25.2728 21.251 24.457 20.6877 23.6411 20.1179C22.9613 19.6453 22.2879 19.1532 21.5886 18.7064C20.98 18.318 20.4167 17.8518 19.8081 17.4568C19.1217 17.0165 18.4743 16.5244 17.7944 16.0777C17.2311 15.7086 16.6807 15.3137 16.1304 14.9252C16.0203 14.8475 15.9232 14.8151 15.8067 14.8928C15.5736 15.0611 15.2757 15.1712 15.0815 15.3525C14.5246 15.864 13.8448 16.1942 13.2621 16.6604C12.5175 17.2496 11.7146 17.7741 10.9182 18.2985C9.59733 19.1726 8.31532 20.1179 7.00094 20.9985C6.21749 21.523 5.44052 22.0539 4.68944 22.6302C4.48225 22.7856 4.20383 22.8568 4.07434 23.1158C3.94484 23.1028 3.8024 23.1546 3.67938 23.0704C5.99735 21.4518 8.31532 19.8395 10.6268 18.2208C10.9311 18.0072 11.2743 17.8388 11.5268 17.5539C11.5721 17.541 11.6304 17.5345 11.6239 17.4698C11.6239 17.4633 11.611 17.4503 11.6045 17.4503C11.5398 17.4439 11.5268 17.4957 11.5139 17.541C11.2808 17.5539 11.1383 17.7352 10.9635 17.8518C8.49662 19.5546 6.02325 21.2446 3.55636 22.9345ZM14.693 15.359C14.7124 15.3396 14.7383 15.3137 14.7577 15.2942C14.8095 15.2942 14.8613 15.2813 14.8872 15.2295C14.9067 15.2101 14.9326 15.1842 14.952 15.1647C15.0038 15.1647 15.0556 15.1518 15.0815 15.1C15.088 15.087 15.1009 15.0806 15.1074 15.0676C15.0944 15.0741 15.088 15.087 15.075 15.0935C15.0232 15.0935 14.9714 15.1065 14.9455 15.1583C14.9261 15.1777 14.9002 15.2036 14.8808 15.223C14.829 15.223 14.7772 15.236 14.7513 15.2878C14.7318 15.3137 14.7124 15.3331 14.693 15.359C14.68 15.3655 14.6671 15.3719 14.6606 15.3849C14.6736 15.3784 14.6865 15.3719 14.693 15.359ZM13.8513 15.9352C13.7995 15.9352 13.7477 15.9482 13.7218 16C13.6829 16.0065 13.6311 16.0065 13.6246 16.0647C13.6246 16.0777 13.6505 16.1036 13.6635 16.1036C13.7153 16.0971 13.7218 16.0518 13.7282 16.0129C13.78 16.0065 13.8254 16 13.8513 15.9352C13.8772 15.9223 13.9031 15.8964 13.9225 15.877C13.9743 15.877 14.0261 15.864 14.052 15.8122C14.0714 15.7928 14.0973 15.7669 14.1167 15.7475C14.1685 15.7475 14.2203 15.7345 14.2462 15.6827C14.2527 15.6698 14.2657 15.6633 14.2721 15.6503C14.2592 15.6568 14.2527 15.6698 14.2398 15.6762C14.188 15.6762 14.1362 15.6892 14.1103 15.741C14.0908 15.7604 14.0649 15.7863 14.0455 15.8057C13.9937 15.8057 13.9419 15.8187 13.916 15.8705C13.8901 15.8964 13.8707 15.9158 13.8513 15.9352ZM13.0095 16.5244C12.9577 16.5244 12.9059 16.5374 12.88 16.5892C12.8282 16.5957 12.7765 16.6021 12.7829 16.6734C12.7829 16.6798 12.7959 16.6928 12.8024 16.6928C12.8736 16.6993 12.88 16.6475 12.8865 16.5957C12.9383 16.5892 12.9836 16.5762 13.0095 16.5244C13.0354 16.5115 13.0549 16.4856 13.0808 16.4662C13.1326 16.4662 13.1844 16.4532 13.2103 16.4014C13.2297 16.382 13.2556 16.3561 13.275 16.3367C13.3268 16.3367 13.3786 16.3237 13.4045 16.2719C13.411 16.259 13.4239 16.2525 13.4304 16.2396C13.4175 16.246 13.411 16.259 13.398 16.2654C13.3462 16.2654 13.2944 16.2784 13.2685 16.3302C13.2491 16.3496 13.2232 16.3755 13.2038 16.3949C13.152 16.3949 13.1002 16.4079 13.0743 16.4597C13.0484 16.4791 13.029 16.4985 13.0095 16.5244ZM12.3621 16.9842C12.4139 16.9777 12.4657 16.9712 12.4592 16.9C12.4592 16.8935 12.4462 16.8806 12.4398 16.8806C12.3685 16.8741 12.3621 16.9259 12.3556 16.9777C12.3038 16.9777 12.2585 16.9906 12.2261 17.0424C12.1354 17.0489 12.0707 17.0942 12.0319 17.1719C11.9865 17.1849 11.9283 17.1849 11.9347 17.2561C11.9347 17.2626 11.9477 17.2755 11.9542 17.2755C12.0189 17.282 12.0319 17.2302 12.0383 17.1784C12.129 17.1784 12.2196 17.1719 12.2326 17.0489C12.2908 17.0424 12.3362 17.0295 12.3621 16.9842ZM14.4858 15.4496C14.4793 15.4691 14.4664 15.4885 14.4599 15.5014C14.4793 15.5079 14.4987 15.5273 14.5117 15.5208C14.5246 15.5144 14.5311 15.4885 14.5376 15.4691C14.5182 15.4626 14.4987 15.4561 14.4858 15.4496ZM12.6664 16.7899C12.6599 16.7705 12.6534 16.7446 12.6405 16.7446C12.6275 16.7381 12.5952 16.7511 12.5887 16.764C12.5693 16.7899 12.5822 16.8223 12.6146 16.8223C12.634 16.8223 12.647 16.8029 12.6664 16.7899ZM15.3599 14.9446C15.3664 14.9252 15.3728 14.9057 15.3858 14.8928C15.3664 14.8863 15.3469 14.8669 15.334 14.8734C15.321 14.8798 15.3146 14.9057 15.3081 14.9252C15.321 14.9316 15.3405 14.9381 15.3599 14.9446ZM11.8247 17.3662C11.8117 17.3467 11.7988 17.3273 11.7923 17.3208C11.7793 17.3208 11.747 17.3338 11.747 17.3467C11.734 17.3791 11.7534 17.405 11.7858 17.3985C11.7988 17.3985 11.8117 17.3791 11.8247 17.3662Z" fill="#E6E3D6"/>
<path d="M28.1606 23.0707C27.7332 22.6563 27.2153 22.3714 26.7296 22.0347C24.0556 20.17 21.375 18.3117 18.6944 16.4535C17.7944 15.8254 16.888 15.2038 15.988 14.5758C15.988 14.5563 15.9815 14.5304 15.9815 14.511C17.3153 13.5851 18.6491 12.6592 19.9829 11.7333C22.6764 9.87508 25.3699 8.02329 28.057 6.16502C28.1412 6.10675 28.2253 6.02905 28.3419 6.02905C28.3419 11.7269 28.3419 17.4247 28.3419 23.129C28.2901 23.1095 28.2253 23.0901 28.1606 23.0707Z" fill="#B6B5AC"/>
<path d="M4.07422 23.1286C4.19724 22.8697 4.48213 22.7984 4.68932 22.643C5.4404 22.0733 6.21737 21.5358 7.00082 21.0114C8.3152 20.1243 9.59721 19.1855 10.9181 18.3114C11.7145 17.7869 12.5173 17.2625 13.2619 16.6733C13.8511 16.2071 14.5245 15.8769 15.0814 15.3654C15.2821 15.1841 15.5734 15.074 15.8065 14.9057C15.9166 14.8215 16.0137 14.8539 16.1303 14.938C16.6806 15.3265 17.231 15.7215 17.7943 16.0906C18.4741 16.5373 19.1216 17.0359 19.8079 17.4697C20.4166 17.8582 20.9799 18.3244 21.5885 18.7193C22.2878 19.1661 22.9612 19.6582 23.641 20.1308C24.4568 20.7006 25.2791 21.2639 26.0755 21.8531C26.5611 22.2092 27.0597 22.5394 27.5518 22.8826C27.6424 22.9474 27.7784 22.9862 27.7719 23.1351C19.8727 23.1286 11.9735 23.1286 4.07422 23.1286Z" fill="#E6E3D6"/>
<path d="M28.3547 23.1289C28.3547 17.4311 28.3547 11.7333 28.3547 6.029C28.6331 5.72468 28.9957 5.53691 29.3259 5.29735C30.1417 4.70167 30.964 4.12541 31.7798 3.54268C31.8381 3.49735 31.8964 3.44556 31.9806 3.44556C31.987 3.55563 31.9935 3.65922 31.9935 3.7693C31.9935 9.27934 31.9935 14.7959 32 20.3059C32 20.6814 31.987 21.057 31.8964 21.4325C31.7345 22.1253 31.3201 22.6045 30.6467 22.844C29.9021 23.103 29.1316 23.1742 28.3547 23.1289Z" fill="#B1392F"/>
<path d="M11.5268 17.5669C11.2743 17.8518 10.9311 18.0201 10.6268 18.2338C8.3153 19.8525 5.99733 21.4712 3.67936 23.0834C3.63404 23.0964 3.59519 23.1093 3.54987 23.1223C3.54987 23.0575 3.55634 22.9992 3.55634 22.9345C6.02971 21.2446 8.4966 19.5547 10.97 17.8647C11.1448 17.7482 11.2808 17.5604 11.5203 17.554L11.5268 17.5669Z" fill="#BEBDB3"/>
<path d="M15.988 14.511C15.988 14.5304 15.988 14.5563 15.9945 14.5757C15.9297 14.5757 15.865 14.5822 15.8002 14.5822C15.8261 14.5563 15.8585 14.5369 15.8844 14.511C15.9103 14.511 15.9492 14.511 15.988 14.511Z" fill="#C7C5BB"/>
<path d="M12.0319 17.1656C12.0707 17.0879 12.1355 17.0426 12.2261 17.0361L12.2326 17.0426C12.2196 17.1656 12.129 17.1721 12.0383 17.1721L12.0319 17.1656Z" fill="#BEBDB3"/>
<path d="M14.4857 15.4497C14.5051 15.4562 14.5245 15.4627 14.5375 15.4691C14.531 15.4886 14.5245 15.5145 14.5116 15.5209C14.4986 15.5274 14.4792 15.508 14.4598 15.5015C14.4663 15.4886 14.4727 15.4691 14.4857 15.4497Z" fill="#C4C2B8"/>
<path d="M12.3555 16.9714C12.3619 16.9196 12.3749 16.8743 12.4396 16.8743C12.4461 16.8743 12.4591 16.8872 12.4591 16.8937C12.4591 16.9649 12.4073 16.9649 12.3619 16.9779C12.3619 16.9843 12.3555 16.9714 12.3555 16.9714Z" fill="#BEBDB3"/>
<path d="M12.6663 16.7903C12.6533 16.8033 12.6339 16.8227 12.621 16.8162C12.5886 16.8162 12.5756 16.7839 12.5951 16.758C12.6015 16.745 12.6339 16.7385 12.6469 16.7385C12.6533 16.745 12.6533 16.7774 12.6663 16.7903Z" fill="#BEBDB3"/>
<path d="M15.3598 14.945C15.3404 14.9385 15.321 14.932 15.308 14.9191C15.3145 14.8996 15.321 14.8737 15.3339 14.8673C15.3469 14.8608 15.3663 14.8802 15.3857 14.8867C15.3728 14.9061 15.3663 14.9255 15.3598 14.945Z" fill="#C7C5BB"/>
<path d="M12.8864 16.5958C12.88 16.6476 12.867 16.693 12.8023 16.693C12.7958 16.693 12.7828 16.68 12.7828 16.6735C12.7828 16.6023 12.8346 16.6023 12.88 16.5894L12.8864 16.5958Z" fill="#BEBDB3"/>
<path d="M13.7282 16.0132C13.7218 16.0585 13.7153 16.0974 13.6635 16.1038C13.6505 16.1038 13.6246 16.0779 13.6246 16.065C13.6311 16.0132 13.6764 16.0067 13.7218 16.0002C13.7218 16.0067 13.7282 16.0132 13.7282 16.0132Z" fill="#C2C0B6"/>
<path d="M12.0447 17.1787C12.0318 17.2305 12.0253 17.2758 11.9605 17.2758C11.9541 17.2758 11.9411 17.2629 11.9411 17.2564C11.9346 17.1852 11.9929 17.1852 12.0382 17.1722C12.0318 17.1657 12.0447 17.1787 12.0447 17.1787Z" fill="#BEBDB3"/>
<path d="M11.8246 17.3666C11.8116 17.3796 11.7987 17.399 11.7857 17.399C11.7469 17.4055 11.7339 17.3796 11.7469 17.3472C11.7533 17.3342 11.7792 17.3213 11.7922 17.3213C11.7987 17.3278 11.8116 17.3537 11.8246 17.3666Z" fill="#BEBDB3"/>
<path d="M11.5139 17.5542C11.5269 17.5024 11.5333 17.457 11.6046 17.4635C11.611 17.4635 11.624 17.4765 11.624 17.4829C11.6305 17.5542 11.5722 17.5542 11.5269 17.5671L11.5139 17.5542Z" fill="#BEBDB3"/>
<path d="M14.8871 15.2297C14.8612 15.2815 14.8094 15.2945 14.7576 15.2945L14.7512 15.288C14.7835 15.2427 14.8289 15.2297 14.8871 15.2297Z" fill="#C4C2B8"/>
<path d="M12.2324 17.0364C12.2583 16.9846 12.3101 16.9717 12.3619 16.9717L12.3684 16.9782C12.3425 17.03 12.2907 17.0429 12.2389 17.0429C12.2389 17.0494 12.2324 17.0364 12.2324 17.0364Z" fill="#BEBDB3"/>
<path d="M14.1102 15.7476C14.1361 15.6958 14.1879 15.6829 14.2397 15.6829L14.2461 15.6893C14.2138 15.7347 14.1684 15.7476 14.1102 15.7476Z" fill="#C2C0B6"/>
<path d="M14.0453 15.8125C14.0194 15.8643 13.9676 15.8772 13.9158 15.8772C13.9417 15.8254 13.9871 15.8125 14.0453 15.8125Z" fill="#C2C0B6"/>
<path d="M13.2686 16.3304C13.2945 16.2786 13.3463 16.2656 13.3981 16.2656L13.4046 16.2721C13.3722 16.3174 13.3269 16.3304 13.2686 16.3304Z" fill="#BEBDB3"/>
<path d="M13.2037 16.395C13.1778 16.4468 13.126 16.4598 13.0742 16.4598C13.1001 16.4015 13.1454 16.395 13.2037 16.395Z" fill="#BEBDB3"/>
<path d="M13.0094 16.5247C12.9835 16.5765 12.9317 16.5894 12.8799 16.5894L12.8734 16.5829C12.9058 16.5376 12.9511 16.5247 13.0094 16.5247Z" fill="#BEBDB3"/>
<path d="M15.7288 14.647C15.7029 14.6988 15.6511 14.7117 15.5993 14.7117L15.5928 14.7052C15.6252 14.6599 15.6705 14.647 15.7288 14.647Z" fill="#C7C5BB"/>
<path d="M14.952 15.1651C14.9779 15.1133 15.0297 15.1003 15.0815 15.1003C15.0556 15.1521 15.0102 15.1651 14.952 15.1651Z" fill="#C4C2B8"/>
<path d="M13.8512 15.9418C13.8253 15.9936 13.7735 16.0066 13.7217 16.0066L13.7152 16.0001C13.7476 15.9548 13.7929 15.9418 13.8512 15.9418C13.8512 15.9418 13.8512 15.9354 13.8512 15.9418Z" fill="#C2C0B6"/>
<path d="M13.2037 16.3953C13.2232 16.3759 13.2491 16.35 13.2685 16.3306L13.275 16.337C13.2491 16.3565 13.2296 16.3759 13.2037 16.3953Z" fill="#BEBDB3"/>
<path d="M13.916 15.8772C13.8966 15.8966 13.8707 15.9225 13.8513 15.9419L13.8448 15.9355C13.8707 15.916 13.8901 15.8966 13.916 15.8772Z" fill="#C2C0B6"/>
<path d="M14.693 15.3592C14.7124 15.3398 14.7383 15.3139 14.7577 15.2944L14.7642 15.3009C14.7383 15.3203 14.7189 15.3398 14.693 15.3592Z" fill="#C4C2B8"/>
<path d="M14.2397 15.6831C14.2526 15.6766 14.2591 15.6637 14.2721 15.6572C14.2591 15.6637 14.2526 15.6766 14.2397 15.6831Z" fill="#C2C0B6"/>
<path d="M15.0815 15.1004C15.0944 15.0939 15.1009 15.0809 15.1139 15.0745C15.1009 15.0809 15.0944 15.0939 15.0815 15.1004Z" fill="#C4C2B8"/>
<path d="M15.5346 14.7764C15.5216 14.7828 15.5151 14.7958 15.5022 14.8023C15.5151 14.7958 15.5216 14.7828 15.5346 14.7764Z" fill="#C7C5BB"/>
<path d="M15.5346 14.7767C15.554 14.7572 15.5799 14.7313 15.5994 14.7119L15.6058 14.7184C15.5799 14.7378 15.5605 14.7572 15.5346 14.7767Z" fill="#C7C5BB"/>
<path d="M14.8871 15.2298C14.9065 15.2104 14.9324 15.1845 14.9518 15.165L14.9583 15.1715C14.9324 15.1909 14.913 15.2104 14.8871 15.2298Z" fill="#C4C2B8"/>
<path d="M15.7937 14.5823C15.7743 14.6017 15.7484 14.6276 15.7289 14.647L15.7225 14.6405C15.7484 14.6211 15.7678 14.6017 15.7937 14.5823Z" fill="#C7C5BB"/>
<path d="M14.6929 15.3591C14.6799 15.3656 14.6735 15.3786 14.6605 15.385C14.6735 15.3786 14.6799 15.3656 14.6929 15.3591Z" fill="#C4C2B8"/>
<path d="M13.3979 16.2659C13.4108 16.2594 13.4173 16.2465 13.4303 16.24C13.4173 16.2465 13.4108 16.2594 13.3979 16.2659Z" fill="#BEBDB3"/>
<path d="M14.1101 15.7478C14.0907 15.7672 14.0648 15.7931 14.0454 15.8126L14.0389 15.8061C14.0648 15.7867 14.0842 15.7672 14.1101 15.7478Z" fill="#C2C0B6"/>
<path d="M13.0742 16.4597C13.0548 16.4791 13.0289 16.505 13.0095 16.5245L13.003 16.518C13.0289 16.4986 13.0483 16.4791 13.0742 16.4597Z" fill="#BEBDB3"/>
</svg>
