<svg width="1171" height="713" viewBox="0 0 1171 713" fill="none" xmlns="http://www.w3.org/2000/svg">
<rect x="1171" y="712.164" width="1171" height="712.163" transform="rotate(180 1171 712.164)" fill="#0E0E0E"/>
<path d="M1158.29 711.655C1158.29 476.043 1015.23 3.46973 450.724 3.63843C305.132 3.63845 12.7682 96.163 12.7683 441.974C12.7683 531.756 64.231 711.655 282.215 711.655C338.328 711.655 450.724 677.823 450.724 543.168C450.724 509.437 430.907 441.974 349.618 441.974C327.206 441.974 282.215 455.062 282.215 509.437C282.215 520.737 288.82 543.168 315.916 543.168C327.038 543.168 349.618 536.691 349.618 509.437" stroke="#C4C4C4" stroke-opacity="0.1" stroke-width="2"/>
<ellipse cx="399.482" cy="492.411" rx="49.8082" ry="49.8514" transform="rotate(180 399.482 492.411)" fill="#C4C4C4" fill-opacity="0.1"/>
<ellipse cx="332.902" cy="525.475" rx="15.7556" ry="15.7693" transform="rotate(180 332.902 525.475)" fill="#C4C4C4" fill-opacity="0.1"/>
<ellipse cx="298.341" cy="525.475" rx="15.7556" ry="15.7693" transform="rotate(180 298.341 525.475)" fill="#C4C4C4" fill-opacity="0.1"/>
<ellipse cx="145.867" cy="579.396" rx="132.652" ry="132.768" transform="rotate(180 145.867 579.396)" fill="#C4C4C4" fill-opacity="0.1"/>
<rect x="1157.8" y="710.146" width="707.512" height="708.129" transform="rotate(180 1157.8 710.146)" stroke="#C4C4C4" stroke-opacity="0.1" stroke-width="2"/>
<rect x="448.29" y="711.164" width="164.705" height="167.902" transform="rotate(180 448.29 711.164)" stroke="#C4C4C4" stroke-opacity="0.1" stroke-width="2"/>
</svg>
