<svg width="32" height="32" viewBox="0 0 32 32" fill="none" xmlns="http://www.w3.org/2000/svg">
<path d="M3.2 1.52344C1.43264 1.52344 0 2.89487 0 4.57106V28.952C0 30.6282 1.43264 31.9996 3.2 31.9996H28.8C30.568 31.9996 32 30.6282 32 28.952V4.57106C32 2.89487 30.568 1.52344 28.8 1.52344H3.2Z" fill="#30497B"/>
<path d="M3.2 0C1.43264 0 0 1.36442 0 3.04762V27.4286C0 29.1124 1.43264 30.4762 3.2 30.4762H28.8C30.568 30.4762 32 29.1124 32 27.4286V3.04762C32 1.36442 30.568 0 28.8 0H3.2Z" fill="#3B5998"/>
<path d="M24 6.09521C20.4656 6.09521 17.6 8.83807 17.6 12.1905V16.7619H14.4V21.3333H17.6V32H22.4V21.3333H26.3264L27.2 16.7619H22.4V12.1905C22.4 11.2762 23.1168 10.6666 24 10.6666H27.2V6.09521H24Z" fill="#30497B"/>
<path d="M24 4.57129C20.4656 4.57129 17.6 7.30028 17.6 10.6665V15.238H14.4V19.8094H17.6V30.4761H22.4V19.8094H26.3264L27.2 15.238H22.4V10.6665C22.4 9.82493 23.1168 9.14272 24 9.14272H27.2V4.57129H24Z" fill="#ECF0F1"/>
<path d="M22.4 30.4766H17.6V32.0004H22.4V30.4766Z" fill="#BDC3C7"/>
</svg>
