<svg width="36" height="36" viewBox="0 0 36 36" fill="none" xmlns="http://www.w3.org/2000/svg">
<path fill-rule="evenodd" clip-rule="evenodd" d="M18 36C27.9411 36 36 27.9411 36 18C36 8.05888 27.9411 0 18 0C8.05888 0 0 8.05888 0 18C0 27.9411 8.05888 36 18 36Z" fill="#262626"/>
<path fill-rule="evenodd" clip-rule="evenodd" d="M30.7279 5.27197C33.9853 8.52933 36 13.0293 36 17.9999C36 27.941 27.9411 35.9999 18 35.9999C13.0295 35.9999 8.52945 33.9852 5.27209 30.7278L30.7279 5.27197Z" fill="black" fill-opacity="0.4"/>
<path fill-rule="evenodd" clip-rule="evenodd" d="M15.255 28.5102C15.255 28.2403 15.2455 27.5264 15.24 26.5781C12.1589 27.2642 11.5089 25.0554 11.5089 25.0554C11.005 23.7432 10.2787 23.3939 10.2787 23.3939C9.27301 22.6889 10.3549 22.7036 10.3549 22.7036C11.4667 22.7838 12.0515 23.8742 12.0515 23.8742C13.0395 25.6097 14.6437 25.109 15.2754 24.8183C15.376 24.0841 15.6623 23.5835 15.9785 23.2997C13.519 23.0132 10.9329 22.0384 10.9329 17.6863C10.9329 16.4466 11.3647 15.4328 12.0733 14.6387C11.9597 14.3514 11.5789 13.1968 12.1821 11.6329C12.1821 11.6329 13.1123 11.3275 15.2278 12.7973C16.1111 12.5456 17.0591 12.4187 18.0015 12.4145C18.942 12.4187 19.8892 12.5456 20.7746 12.7973C22.8887 11.3275 23.8176 11.6329 23.8176 11.6329C24.4221 13.1961 24.042 14.3507 23.9278 14.6387C24.6377 15.4328 25.0661 16.4466 25.0661 17.6863C25.0661 22.0496 22.476 23.0097 20.0082 23.2907C20.4067 23.6414 20.7603 24.3344 20.7603 25.3942C20.7603 26.9128 20.746 28.1378 20.746 28.5102C20.746 28.8141 20.946 29.167 21.5083 29.0561C25.9059 27.5515 29.0768 23.2969 29.0768 18.281C29.0768 12.008 24.1168 6.9231 17.9995 6.9231C11.8829 6.9231 6.92291 12.008 6.92291 18.281C6.92359 23.2983 10.0972 27.5556 14.4988 29.0575C15.0524 29.1614 15.255 28.8107 15.255 28.5102Z" fill="white"/>
</svg>
