<svg width="32" height="32" viewBox="0 0 32 32" fill="none" xmlns="http://www.w3.org/2000/svg">
<path d="M28.549 0H3.45098C1.54506 0 0 1.54506 0 3.45098V28.549C0 30.4549 1.54506 32 3.45098 32H28.549C30.4549 32 32 30.4549 32 28.549V3.45098C32 1.54506 30.4549 0 28.549 0Z" fill="#6BCFED"/>
<path fill-rule="evenodd" clip-rule="evenodd" d="M15.8954 12.7581C12.6536 12.549 9.5163 11.3987 6.90192 8.2614C5.75159 10.1437 6.37904 12.6536 8.2614 14.013C7.63395 14.013 6.90192 13.8039 6.27447 13.4902C6.37904 15.6862 7.52937 17.0457 9.72545 17.7777C9.098 17.8823 8.47055 17.9869 7.8431 17.8823C8.36597 19.5555 9.62087 20.7058 11.817 20.8104C10.1437 22.2745 8.05225 22.9019 5.43787 22.6928C13.1764 27.5032 24.2614 23.1111 24.366 11.7124C25.2026 11.0849 25.9346 10.3529 26.5621 9.41172C25.83 9.72545 24.9934 10.0392 24.1568 10.1437C25.098 9.5163 25.6209 8.6797 25.9346 7.73852C25.098 8.2614 24.2614 8.57512 23.2156 8.78427C19.5555 5.43787 14.9542 8.99342 15.8954 12.7581Z" fill="white"/>
<path fill-rule="evenodd" clip-rule="evenodd" d="M32 13.6993L25.9346 7.73853C25.6209 8.6797 25.098 9.5163 24.1568 10.1438C24.9934 10.0392 25.83 9.72545 26.562 9.41173C25.9346 10.3529 25.2026 11.0849 24.366 11.7124C24.2614 23.1111 13.1764 27.5032 5.43787 22.6928L14.8496 32H28.549L32 28.549V13.6993Z" fill="#57A9C2"/>
</svg>
